<?xml version="1.0" encoding="utf-8"?>
<!-- Generator: Adobe Illustrator 21.1.0, SVG Export Plug-In . SVG Version: 6.00 Build 0)  -->
<svg version="1.1" id="Layer_1" xmlns="http://www.w3.org/2000/svg" xmlns:xlink="http://www.w3.org/1999/xlink" x="0px" y="0px"
	 viewBox="0 0 100 100" style="enable-background:new 0 0 100 100;" xml:space="preserve">
<style type="text/css">
	.st0{fill:#D32430;stroke:#000000;stroke-width:2;stroke-miterlimit:10;}
</style>
<path class="st0" d="M87.1,27.1L51.3,6.4c-0.8-0.5-1.8-0.5-2.6,0L12.9,27.1c-0.8,0.5-1.3,1.3-1.3,2.3v41.3c0,0.9,0.5,1.8,1.3,2.3
	l35.8,20.6c0.4,0.2,0.9,0.4,1.3,0.4s0.9-0.1,1.3-0.4L87.1,73c0.8-0.5,1.3-1.3,1.3-2.3V29.4C88.4,28.4,87.9,27.6,87.1,27.1z
	 M62.4,57.9H36.6l13.3-23.5L62.4,57.9z M32.3,55L18.8,31.6h26.7L32.3,55z M62.1,63.1L49.9,85.6L37,63.1H62.1z M66.7,54.7L54.4,31.6
	h24.8L66.7,54.7z M52.6,26.3v-13l22.6,13.1H52.6V26.3z M24.7,26.3l22.6-13.1v13.1H24.7z M16.9,38.8l11.9,20.6l-11.9,7V38.8z
	 M31.4,64l11.7,20.3L19.8,70.8L31.4,64z M67.9,63.6l12.3,7.2L56.5,84.5L67.9,63.6z M70.4,58.9l12.7-23.5v31L70.4,58.9z"/>
</svg>
